{
  "asset": {
    "version": "2.0",
    "generator": "GitHub Copilot synthetic glTF corpus"
  },
  "extensionsUsed": [
    "KHR_materials_unlit",
    "KHR_texture_transform"
  ],
  "extensionsRequired": [
    "KHR_materials_unlit"
  ],
  "scene": 0,
  "scenes": [
    {
      "name": "InlineScene",
      "nodes": [
        0
      ]
    }
  ],
  "nodes": [
    {
      "name": "InlineMeshNode",
      "mesh": 0
    }
  ],
  "meshes": [
    {
      "name": "InlineQuad",
      "primitives": [
        {
          "attributes": {
            "POSITION": 0,
            "NORMAL": 1,
            "TEXCOORD_0": 2,
            "TEXCOORD_1": 3
          },
          "indices": 4,
          "material": 0
        }
      ]
    }
  ],
  "materials": [
    {
      "name": "Inline Unlit Material",
      "extensions": {
        "KHR_materials_unlit": {}
      },
      "pbrMetallicRoughness": {
        "baseColorTexture": {
          "index": 0,
          "extensions": {
            "KHR_texture_transform": {
              "texCoord": 1
            }
          }
        },
        "baseColorFactor": [
          1.0,
          1.0,
          1.0,
          1.0
        ],
        "metallicFactor": 0.0,
        "roughnessFactor": 1.0
      },
      "alphaMode": "MASK",
      "alphaCutoff": 0.5
    }
  ],
  "textures": [
    {
      "name": "Inline Base Color",
      "sampler": 0,
      "source": 0
    }
  ],
  "samplers": [
    {
      "wrapS": 10497,
      "wrapT": 10497,
      "minFilter": 9729,
      "magFilter": 9729
    }
  ],
  "images": [
    {
      "name": "InlineChecker",
      "uri": "data:image/png;base64,"
    }
  ],
  "buffers": [
    {
      "uri": "data:application/octet-stream;base64,",
      "byteLength": 172
    }
  ],
  "bufferViews": [
    {
      "buffer": 0,
      "byteOffset": 0,
      "byteLength": 48,
      "target": 34962
    },
    {
      "buffer": 0,
      "byteOffset": 48,
      "byteLength": 48,
      "target": 34962
    },
    {
      "buffer": 0,
      "byteOffset": 96,
      "byteLength": 32,
      "target": 34962
    },
    {
      "buffer": 0,
      "byteOffset": 128,
      "byteLength": 32,
      "target": 34962
    },
    {
      "buffer": 0,
      "byteOffset": 160,
      "byteLength": 12,
      "target": 34963
    }
  ],
  "accessors": [
    {
      "bufferView": 0,
      "byteOffset": 0,
      "componentType": 5126,
      "count": 4,
      "type": "VEC3",
      "min": [
        -0.75,
        0.0,
        0.0
      ],
      "max": [
        0.75,
        1.5,
        0.0
      ]
    },
    {
      "bufferView": 1,
      "byteOffset": 0,
      "componentType": 5126,
      "count": 4,
      "type": "VEC3",
      "min": [
        0.0,
        0.0,
        1.0
      ],
      "max": [
        0.0,
        0.0,
        1.0
      ]
    },
    {
      "bufferView": 2,
      "byteOffset": 0,
      "componentType": 5126,
      "count": 4,
      "type": "VEC2",
      "min": [
        0.0,
        0.0
      ],
      "max": [
        1.0,
        1.0
      ]
    },
    {
      "bufferView": 3,
      "byteOffset": 0,
      "componentType": 5126,
      "count": 4,
      "type": "VEC2",
      "min": [
        0.1,
        0.1
      ],
      "max": [
        0.9,
        0.9
      ]
    },
    {
      "bufferView": 4,
      "byteOffset": 0,
      "componentType": 5123,
      "count": 6,
      "type": "SCALAR",
      "min": [
        0
      ],
      "max": [
        3
      ]
    }
  ]
}
