{
  "asset": {
    "version": "2.0",
    "generator": "diag"
  },
  "scene": 1,
  "scenes": [
    {
      "name": "PreviewScene",
      "nodes": [
        2
      ]
    },
    {
      "name": "GameplayScene",
      "nodes": [
        0
      ]
    }
  ],
  "nodes": [
    {
      "name": "RootNode",
      "children": [
        1
      ],
      "extras": {
        "tag": "RootJoint"
      }
    },
    {
      "name": "MorphMeshNode",
      "mesh": 0,
      "translation": [
        0.25,
        0.0,
        0.0
      ]
    },
    {
      "name": "PreviewMeshNode",
      "mesh": 0
    }
  ],
  "meshes": [
    {
      "name": "MorphMesh",
      "extras": {
        "targetNames": [
          "Smile"
        ]
      },
      "primitives": [
        {
          "attributes": {
            "POSITION": 0,
            "NORMAL": 1,
            "COLOR_0": 2,
            "TEXCOORD_0": 3
          },
          "indices": 4,
          "material": 0,
          "targets": [
            {
              "POSITION": 5
            }
          ]
        }
      ]
    }
  ],
  "materials": [
    {
      "name": "Hero Material",
      "extensions": {
        "XRE_material_metadata": {
          "quality": "hero",
          "owner": "tests"
        }
      },
      "pbrMetallicRoughness": {
        "baseColorTexture": {
          "index": 0,
          "texCoord": 0
        },
        "metallicFactor": 0.0,
        "roughnessFactor": 1.0
      }
    }
  ],
  "textures": [
    {
      "name": "Hero Base Color",
      "sampler": 0,
      "source": 0
    }
  ],
  "samplers": [
    {
      "wrapS": 10497,
      "wrapT": 10497,
      "minFilter": 9729,
      "magFilter": 9729
    }
  ],
  "images": [
    {
      "name": "HeroImage",
      "uri": "hero.png"
    }
  ],
  "buffers": [
    {
      "uri": "morph-sparse-extras.bin",
      "byteLength": 212
    }
  ],
  "bufferViews": [
    {
      "buffer": 0,
      "byteOffset": 0,
      "byteLength": 48,
      "target": 34962
    },
    {
      "buffer": 0,
      "byteOffset": 48,
      "byteLength": 48,
      "target": 34962
    },
    {
      "buffer": 0,
      "byteOffset": 96,
      "byteLength": 16,
      "target": 34962
    },
    {
      "buffer": 0,
      "byteOffset": 112,
      "byteLength": 32,
      "target": 34962
    },
    {
      "buffer": 0,
      "byteOffset": 144,
      "byteLength": 12,
      "target": 34963
    },
    {
      "buffer": 0,
      "byteOffset": 156,
      "byteLength": 2
    },
    {
      "buffer": 0,
      "byteOffset": 160,
      "byteLength": 4
    },
    {
      "buffer": 0,
      "byteOffset": 164,
      "byteLength": 48,
      "target": 34962
    }
  ],
  "accessors": [
    {
      "bufferView": 0,
      "byteOffset": 0,
      "componentType": 5126,
      "count": 4,
      "type": "VEC3",
      "min": [
        -0.5,
        0.0,
        0.0
      ],
      "max": [
        0.5,
        1.0,
        0.0
      ]
    },
    {
      "bufferView": 1,
      "byteOffset": 0,
      "componentType": 5126,
      "count": 4,
      "type": "VEC3",
      "min": [
        0.0,
        0.0,
        1.0
      ],
      "max": [
        0.0,
        0.0,
        1.0
      ]
    },
    {
      "bufferView": 2,
      "byteOffset": 0,
      "componentType": 5121,
      "count": 4,
      "type": "VEC4",
      "normalized": true,
      "sparse": {
        "count": 1,
        "indices": {
          "bufferView": 5,
          "componentType": 5123
        },
        "values": {
          "bufferView": 6
        }
      }
    },
    {
      "bufferView": 3,
      "byteOffset": 0,
      "componentType": 5126,
      "count": 4,
      "type": "VEC2",
      "min": [
        0.0,
        0.0
      ],
      "max": [
        1.0,
        1.0
      ]
    },
    {
      "bufferView": 4,
      "byteOffset": 0,
      "componentType": 5123,
      "count": 6,
      "type": "SCALAR",
      "min": [
        0
      ],
      "max": [
        3
      ]
    },
    {
      "bufferView": 7,
      "byteOffset": 0,
      "componentType": 5126,
      "count": 4,
      "type": "VEC3"
    }
  ]
}
