{
  "asset": {
    "version": "2.0",
    "generator": "diag"
  },
  "scene": 1,
  "scenes": [
    {
      "name": "PreviewScene",
      "nodes": [
        3
      ]
    },
    {
      "name": "GameplayScene",
      "nodes": [
        0
      ]
    }
  ],
  "nodes": [
    {
      "name": "RootJoint",
      "children": [
        1,
        2
      ],
      "extras": {
        "tag": "RootJoint"
      }
    },
    {
      "name": "ChildJoint",
      "translation": [
        0.0,
        1.0,
        0.0
      ]
    },
    {
      "name": "SkinnedMeshNode",
      "mesh": 0,
      "skin": 0,
      "translation": [
        1.5,
        0.0,
        0.0
      ]
    },
    {
      "name": "PreviewMeshNode",
      "mesh": 0
    }
  ],
  "meshes": [
    {
      "name": "HeroMesh",
      "primitives": [
        {
          "attributes": {
            "POSITION": 0,
            "NORMAL": 1,
            "JOINTS_0": 2,
            "WEIGHTS_0": 3,
            "TEXCOORD_0": 4
          },
          "indices": 5,
          "material": 0
        }
      ]
    }
  ],
  "skins": [
    {
      "name": "HeroSkin",
      "inverseBindMatrices": 6,
      "joints": [
        0,
        1
      ],
      "skeleton": 0
    }
  ],
  "materials": [
    {
      "name": "Hero Material",
      "pbrMetallicRoughness": {
        "baseColorTexture": {
          "index": 0,
          "texCoord": 0
        },
        "metallicFactor": 0.1,
        "roughnessFactor": 0.9
      }
    }
  ],
  "textures": [
    {
      "name": "Hero Base Color",
      "sampler": 0,
      "source": 0
    }
  ],
  "samplers": [
    {
      "wrapS": 10497,
      "wrapT": 10497,
      "minFilter": 9729,
      "magFilter": 9729
    }
  ],
  "images": [
    {
      "name": "HeroImage",
      "uri": "hero.png"
    }
  ],
  "buffers": [
    {
      "uri": "skinned-morph-animated.bin",
      "byteLength": 428
    }
  ],
  "bufferViews": [
    {
      "buffer": 0,
      "byteOffset": 0,
      "byteLength": 48,
      "target": 34962
    },
    {
      "buffer": 0,
      "byteOffset": 48,
      "byteLength": 48,
      "target": 34962
    },
    {
      "buffer": 0,
      "byteOffset": 96,
      "byteLength": 32,
      "target": 34962
    },
    {
      "buffer": 0,
      "byteOffset": 128,
      "byteLength": 64,
      "target": 34962
    },
    {
      "buffer": 0,
      "byteOffset": 192,
      "byteLength": 32,
      "target": 34962
    },
    {
      "buffer": 0,
      "byteOffset": 224,
      "byteLength": 12,
      "target": 34963
    },
    {
      "buffer": 0,
      "byteOffset": 236,
      "byteLength": 128
    },
    {
      "buffer": 0,
      "byteOffset": 364,
      "byteLength": 8
    },
    {
      "buffer": 0,
      "byteOffset": 372,
      "byteLength": 24
    },
    {
      "buffer": 0,
      "byteOffset": 396,
      "byteLength": 32
    }
  ],
  "accessors": [
    {
      "bufferView": 0,
      "byteOffset": 0,
      "componentType": 5126,
      "count": 4,
      "type": "VEC3",
      "min": [
        -0.5,
        0.0,
        0.0
      ],
      "max": [
        0.5,
        1.0,
        0.0
      ]
    },
    {
      "bufferView": 1,
      "byteOffset": 0,
      "componentType": 5126,
      "count": 4,
      "type": "VEC3",
      "min": [
        0.0,
        0.0,
        1.0
      ],
      "max": [
        0.0,
        0.0,
        1.0
      ]
    },
    {
      "bufferView": 2,
      "byteOffset": 0,
      "componentType": 5123,
      "count": 4,
      "type": "VEC4"
    },
    {
      "bufferView": 3,
      "byteOffset": 0,
      "componentType": 5126,
      "count": 4,
      "type": "VEC4"
    },
    {
      "bufferView": 4,
      "byteOffset": 0,
      "componentType": 5126,
      "count": 4,
      "type": "VEC2",
      "min": [
        0.0,
        0.0
      ],
      "max": [
        1.0,
        1.0
      ]
    },
    {
      "bufferView": 5,
      "byteOffset": 0,
      "componentType": 5123,
      "count": 6,
      "type": "SCALAR",
      "min": [
        0
      ],
      "max": [
        3
      ]
    },
    {
      "bufferView": 6,
      "byteOffset": 0,
      "componentType": 5126,
      "count": 2,
      "type": "MAT4"
    },
    {
      "bufferView": 7,
      "byteOffset": 0,
      "componentType": 5126,
      "count": 2,
      "type": "SCALAR",
      "min": [
        0.0
      ],
      "max": [
        1.0
      ]
    },
    {
      "bufferView": 8,
      "byteOffset": 0,
      "componentType": 5126,
      "count": 2,
      "type": "VEC3"
    },
    {
      "bufferView": 9,
      "byteOffset": 0,
      "componentType": 5126,
      "count": 2,
      "type": "VEC4"
    }
  ],
  "animations": [
    {
      "name": "Hero Action",
      "samplers": [
        {
          "input": 7,
          "output": 8,
          "interpolation": "LINEAR"
        },
        {
          "input": 7,
          "output": 9,
          "interpolation": "LINEAR"
        }
      ],
      "channels": [
        {
          "sampler": 0,
          "target": {
            "node": 0,
            "path": "translation"
          }
        },
        {
          "sampler": 1,
          "target": {
            "node": 1,
            "path": "rotation"
          }
        }
      ]
    }
  ]
}
